<svg xmlns="http://www.w3.org/2000/svg" xmlns:xlink="http://www.w3.org/1999/xlink" width="14" height="25" viewBox="0 0 14 25"><defs><path id="qh6xa" d="M267.984 6192.005l-3.236-.005c-3.636 0-5.985 2.41-5.985 6.141v2.832h-3.254a.509.509 0 0 0-.509.51v4.102c0 .281.228.509.509.509h3.254v10.352c0 .281.227.51.508.51h4.246a.509.509 0 0 0 .509-.51v-10.352h3.804a.509.509 0 0 0 .509-.51l.001-4.102a.51.51 0 0 0-.509-.509h-3.805v-2.4c0-1.154.274-1.74 1.777-1.74h2.18c.281 0 .509-.228.509-.51v-3.809a.509.509 0 0 0-.508-.509z"/></defs><g><g transform="translate(-255 -6192)"><g><use fill="#545454" xlink:href="#qh6xa"/></g></g></g></svg>