<svg xmlns="http://www.w3.org/2000/svg" xmlns:xlink="http://www.w3.org/1999/xlink" width="25" height="25" viewBox="0 0 25 25"><defs><path id="rj39a" d="M617.515 4388.552a4.933 4.933 0 0 0 4.933 4.933h10.104a4.933 4.933 0 0 0 4.933-4.933v-10.104a4.933 4.933 0 0 0-4.933-4.933h-10.104a4.933 4.933 0 0 0-4.933 4.933zm4.933-17.552h10.104c4.107 0 7.448 3.341 7.448 7.448v10.104c0 4.107-3.341 7.448-7.448 7.448h-10.104c-4.107 0-7.448-3.341-7.448-7.448v-10.104c0-4.107 3.341-7.448 7.448-7.448z"/><path id="rj39c" d="M627.5 4386.861a3.36 3.36 0 1 0 0-6.722 3.36 3.36 0 0 0 0 6.722zm0-8.861c3.033 0 5.5 2.467 5.5 5.5s-2.467 5.5-5.5 5.5a5.507 5.507 0 0 1-5.5-5.5c0-3.033 2.467-5.5 5.5-5.5z"/><path id="rj39e" d="M619.371 4377.228a1.797 1.797 0 1 1 3.595 0 1.797 1.797 0 0 1-3.595 0z"/><linearGradient id="rj39b" x1="627.5" x2="627.5" y1="4371.21" y2="4395.94" gradientUnits="userSpaceOnUse"><stop offset="0" stop-color="#e09b3d"/><stop offset=".3" stop-color="#c74c4d"/><stop offset=".6" stop-color="#c21975"/><stop offset="1" stop-color="#7024c4"/></linearGradient><linearGradient id="rj39d" x1="627.5" x2="627.5" y1="4373.04" y2="4394.08" gradientUnits="userSpaceOnUse"><stop offset="0" stop-color="#e09b3d"/><stop offset=".3" stop-color="#c74c4d"/><stop offset=".6" stop-color="#c21975"/><stop offset="1" stop-color="#7024c4"/></linearGradient><linearGradient id="rj39f" x1="621.17" x2="621.17" y1="4370.4" y2="4399.14" gradientUnits="userSpaceOnUse"><stop offset="0" stop-color="#e09b3d"/><stop offset=".3" stop-color="#c74c4d"/><stop offset=".6" stop-color="#c21975"/><stop offset="1" stop-color="#7024c4"/></linearGradient></defs><g><g transform="translate(-615 -4371)"><g><use fill="url(#rj39b)" xlink:href="#rj39a"/></g><g><use fill="url(#rj39d)" xlink:href="#rj39c"/></g><g><use fill="url(#rj39f)" xlink:href="#rj39e"/></g></g></g></svg>