<svg xmlns="http://www.w3.org/2000/svg" xmlns:xlink="http://www.w3.org/1999/xlink" width="25" height="25" viewBox="0 0 25 25"><defs><path id="nowfa" d="M355.462 6195.655c0-1.209.984-2.193 2.194-2.193h17.643c1.21 0 2.194.984 2.194 2.193v17.644c0 1.21-.984 2.194-2.194 2.194h-17.643a2.196 2.196 0 0 1-2.194-2.194zm2.193 21.3H375.3a3.66 3.66 0 0 0 3.656-3.656v-17.644a3.66 3.66 0 0 0-3.656-3.655h-17.644a3.66 3.66 0 0 0-3.655 3.655v17.644a3.66 3.66 0 0 0 3.655 3.656z"/><path id="nowfb" d="M366.477 6199.36a5.123 5.123 0 0 1 5.118 5.117 5.123 5.123 0 0 1-5.118 5.118 5.123 5.123 0 0 1-5.117-5.118 5.123 5.123 0 0 1 5.117-5.117zm0 11.697a6.587 6.587 0 0 0 6.58-6.58 6.587 6.587 0 0 0-6.58-6.58 6.587 6.587 0 0 0-6.58 6.58 6.587 6.587 0 0 0 6.58 6.58z"/><path id="nowfc" d="M373.788 6196.435a.732.732 0 0 1 0 1.463.732.732 0 0 1 0-1.463zm0 2.925c1.21 0 2.194-.984 2.194-2.194 0-1.209-.984-2.193-2.194-2.193-1.209 0-2.193.984-2.193 2.193 0 1.21.984 2.194 2.193 2.194z"/></defs><g><g transform="translate(-354 -6192)"><g><use fill="#545454" xlink:href="#nowfa"/></g><g><use fill="#545454" xlink:href="#nowfb"/></g><g><use fill="#545454" xlink:href="#nowfc"/></g></g></g></svg>