<svg width="20" height="20" viewBox="0 0 20 20" fill="none" xmlns="http://www.w3.org/2000/svg">
<path d="M9.9958 0C5.57651 0 1.97903 3.59748 1.97903 8.01677C1.97903 8.51992 2.02515 9.02725 2.12158 9.52201C2.12578 9.55136 2.14255 9.63941 2.17609 9.79036C2.29769 10.3312 2.47798 10.8637 2.71278 11.3711C3.57651 13.4046 5.47588 16.5283 9.6436 19.8742C9.74842 19.9581 9.8742 20 9.99999 20C10.1258 20 10.2516 19.9581 10.3564 19.8742C14.5199 16.5283 16.4235 13.4046 17.2872 11.3711C17.522 10.8637 17.7023 10.3354 17.8239 9.79036C17.8574 9.63941 17.8742 9.55136 17.8784 9.52201C17.9706 9.02725 18.021 8.51992 18.021 8.01677C18.0126 3.59748 14.4151 0 9.9958 0ZM16.7547 9.32495C16.7547 9.33333 16.7505 9.34172 16.7505 9.3501C16.7463 9.37107 16.7337 9.43396 16.7128 9.5304C16.7128 9.53459 16.7128 9.53459 16.7128 9.53878C16.608 10.0084 16.4528 10.4654 16.2474 10.9057C16.2432 10.9099 16.2432 10.9182 16.239 10.9224C15.4549 12.7799 13.7358 15.6143 9.9958 18.7044C6.25576 15.6143 4.53668 12.7799 3.75261 10.9224C3.74842 10.9182 3.74842 10.9099 3.74423 10.9057C3.54297 10.4696 3.38783 10.0084 3.27882 9.53878C3.27882 9.53459 3.27882 9.53459 3.27882 9.5304C3.25366 9.43396 3.24527 9.37107 3.24108 9.3501C3.24108 9.34172 3.23689 9.33333 3.23689 9.32075C3.15303 8.88889 3.1111 8.45283 3.1111 8.01258C3.1111 4.21803 6.20125 1.12788 9.9958 1.12788C13.7903 1.12788 16.8805 4.21803 16.8805 8.01258C16.8805 8.45702 16.8386 8.89727 16.7547 9.32495Z" fill="#D5B58E"/>
<path d="M9.99582 3.01477C7.19079 3.01477 4.90567 5.29989 4.90567 8.10492C4.90567 10.9099 7.19079 13.1951 9.99582 13.1951C12.8008 13.1951 15.086 10.9099 15.086 8.10492C15.086 5.29989 12.8008 3.01477 9.99582 3.01477ZM9.99582 12.063C7.81133 12.063 6.03775 10.2852 6.03775 8.10492C6.03775 5.92462 7.81552 4.14685 9.99582 4.14685C12.1761 4.14685 13.9539 5.92462 13.9539 8.10492C13.9539 10.2852 12.1803 12.063 9.99582 12.063Z" fill="#D5B58E"/>
</svg>
