<svg xmlns="http://www.w3.org/2000/svg" xmlns:xlink="http://www.w3.org/1999/xlink" width="14" height="20" viewBox="0 0 14 20"><defs><path id="6xqva" d="M262.07 5937.766a1.828 1.828 0 0 1-1.827-1.826c0-1.007.82-1.827 1.826-1.827 1.007 0 1.826.82 1.826 1.827 0 1.007-.819 1.826-1.826 1.826zm0-4.383a2.56 2.56 0 0 0-2.558 2.557 2.56 2.56 0 0 0 2.557 2.556 2.56 2.56 0 0 0 2.557-2.556 2.56 2.56 0 0 0-2.557-2.557z"/><path id="6xqvb" d="M267.015 5940.48l-5.01 7.237-5.02-7.248c-1.898-2.532-1.626-6.692.584-8.9a6.232 6.232 0 0 1 4.435-1.839c1.676 0 3.252.653 4.437 1.838 2.21 2.21 2.482 6.369.574 8.912zm-.058-9.428a6.959 6.959 0 0 0-4.953-2.052c-1.87 0-3.63.729-4.952 2.052-2.449 2.448-2.753 7.053-.66 9.844l5.612 8.104 5.604-8.093c2.102-2.802 1.798-7.407-.65-9.855z"/></defs><g><g transform="translate(-255 -5929)"><g><use xlink:href="#6xqva"/></g><g><use xlink:href="#6xqvb"/></g></g></g></svg>