<svg width="20" height="20" viewBox="0 0 20 20" fill="none" xmlns="http://www.w3.org/2000/svg">
<g clip-path="url(#clip0)">
<path d="M17.5585 2.38977H2.44569C1.09663 2.38977 0 3.4864 0 4.83546V15.1644C0 16.5135 1.09663 17.6101 2.44569 17.6101H17.5543C18.9034 17.6101 20 16.5135 20 15.1644V4.83959C20.0041 3.49054 18.9075 2.38977 17.5585 2.38977ZM18.8868 15.1644C18.8868 15.8969 18.2909 16.4928 17.5585 16.4928H2.44569C1.71322 16.4928 1.11732 15.8969 1.11732 15.1644V4.83959C1.11732 4.10713 1.71322 3.51123 2.44569 3.51123H17.5543C18.2868 3.51123 18.8827 4.10713 18.8827 4.83959V15.1644H18.8868Z" fill="#D5B58E"/>
<path d="M12.6133 9.87169L17.5047 5.48518C17.7323 5.27827 17.7529 4.92652 17.546 4.69478C17.3391 4.46718 16.9874 4.44649 16.7556 4.6534L10.0103 10.7076L8.69439 9.53236C8.69025 9.52822 8.68611 9.52408 8.68611 9.51994C8.65715 9.49098 8.62818 9.46615 8.59507 9.44132L3.24022 4.64926C3.00848 4.44235 2.65673 4.46304 2.44982 4.69478C2.24291 4.92652 2.2636 5.27827 2.49534 5.48518L7.44465 9.90894L2.51603 14.523C2.29257 14.7341 2.28015 15.0858 2.4912 15.3134C2.60294 15.4293 2.75191 15.4914 2.90089 15.4914C3.03745 15.4914 3.17401 15.4417 3.2816 15.3424L8.28471 10.6621L9.64204 11.8746C9.74964 11.9698 9.88206 12.0153 10.0145 12.0153C10.1469 12.0153 10.2835 11.9656 10.3869 11.8705L11.7815 10.6207L16.7556 15.3466C16.8632 15.45 17.0039 15.4997 17.1405 15.4997C17.2895 15.4997 17.4343 15.4417 17.546 15.3259C17.7571 15.1024 17.7488 14.7465 17.5253 14.5355L12.6133 9.87169Z" fill="#D5B58E"/>
</g>
<defs>
<clipPath id="clip0">
<rect width="20" height="20" fill="white"/>
</clipPath>
</defs>
</svg>
