<svg xmlns="http://www.w3.org/2000/svg" xmlns:xlink="http://www.w3.org/1999/xlink" width="20" height="15" viewBox="0 0 20 15"><defs><path id="x1q4a" d="M271.193 5984.982a.32.32 0 0 1-.22-.088l-3.711-3.481a.322.322 0 1 1 .441-.47l3.711 3.481a.322.322 0 0 1-.22.558z"/><path id="x1q4b" d="M258.806 5984.982a.323.323 0 0 1-.22-.558l3.711-3.48a.323.323 0 0 1 .442.469l-3.712 3.48a.32.32 0 0 1-.22.089z"/><path id="x1q4c" d="M256.612 5974.645a.969.969 0 0 0-.967.967v10.994c0 .534.434.968.967.968h16.776a.969.969 0 0 0 .967-.968v-10.994a.969.969 0 0 0-.967-.967zm16.776 13.573h-16.776a1.614 1.614 0 0 1-1.612-1.612v-10.994c0-.889.724-1.612 1.612-1.612h16.776c.888 0 1.612.723 1.612 1.612v10.994c0 .89-.724 1.612-1.612 1.612z"/><path id="x1q4d" d="M265 5982.73c-.429 0-.858-.143-1.184-.427l-8.28-7.224a.323.323 0 0 1-.032-.455.324.324 0 0 1 .455-.031l8.28 7.223c.413.359 1.11.359 1.52 0l8.271-7.212a.323.323 0 0 1 .424.487l-8.27 7.211a1.802 1.802 0 0 1-1.184.428z"/></defs><g><g transform="translate(-255 -5974)"><g><g><use xlink:href="#x1q4a"/></g><g><use xlink:href="#x1q4b"/></g></g><g><use xlink:href="#x1q4c"/></g><g><use xlink:href="#x1q4d"/></g></g></g></svg>