<svg width="21" height="21" viewBox="0 0 21 21" fill="none" xmlns="http://www.w3.org/2000/svg">
<g clip-path="url(#clip0)">
<path d="M16.5966 13.0088C16.1667 12.5611 15.6481 12.3218 15.0985 12.3218C14.5533 12.3218 14.0303 12.5567 13.5827 13.0044L12.1821 14.4005C12.0669 14.3384 11.9517 14.2808 11.8408 14.2232C11.6813 14.1434 11.5306 14.0681 11.4021 13.9883C10.0901 13.1551 8.89787 12.0692 7.75436 10.6642C7.20034 9.96387 6.82803 9.37439 6.55767 8.77604C6.92111 8.44363 7.25796 8.09792 7.58594 7.7655C7.71004 7.6414 7.83414 7.51287 7.95824 7.38877C8.889 6.45801 8.889 5.25245 7.95824 4.32169L6.74826 3.1117C6.61086 2.9743 6.46903 2.83247 6.33606 2.69064C6.07013 2.41585 5.7909 2.13219 5.50281 1.86625C5.07289 1.44076 4.55875 1.21472 4.01802 1.21472C3.4773 1.21472 2.9543 1.44076 2.51108 1.86625C2.50665 1.87069 2.50665 1.87069 2.50221 1.87512L0.995267 3.39536C0.427947 3.96268 0.104396 4.6541 0.0334814 5.45633C-0.0728913 6.75053 0.308277 7.95609 0.600802 8.74502C1.31882 10.6819 2.39141 12.4769 3.99143 14.4005C5.93273 16.7185 8.2685 18.549 10.9367 19.8388C11.9561 20.3219 13.3168 20.8937 14.837 20.9912C14.9301 20.9956 15.0276 21 15.1162 21C16.1401 21 16.9999 20.6322 17.6736 19.9009C17.678 19.892 17.6869 19.8876 17.6913 19.8787C17.9218 19.5995 18.1877 19.3468 18.467 19.0765C18.6576 18.8947 18.8526 18.7042 19.0432 18.5047C19.4819 18.0482 19.7124 17.5163 19.7124 16.9712C19.7124 16.4216 19.4775 15.8941 19.0299 15.4509L16.5966 13.0088ZM18.1833 17.6759C18.1789 17.6759 18.1789 17.6803 18.1833 17.6759C18.0105 17.862 17.8332 18.0305 17.6426 18.2166C17.3545 18.4914 17.062 18.7795 16.7872 19.1031C16.3395 19.5817 15.8121 19.8078 15.1207 19.8078C15.0542 19.8078 14.9833 19.8078 14.9168 19.8033C13.6004 19.7191 12.3771 19.205 11.4597 18.7662C8.95106 17.5518 6.74826 15.8277 4.91776 13.6426C3.40638 11.821 2.39584 10.1367 1.72658 8.32839C1.31439 7.22478 1.16369 6.36493 1.23017 5.55384C1.2745 5.03527 1.47394 4.60535 1.84182 4.23748L3.35319 2.7261C3.57037 2.52222 3.80085 2.41141 4.02689 2.41141C4.30612 2.41141 4.53216 2.57984 4.67399 2.72167C4.67842 2.7261 4.68285 2.73053 4.68728 2.73496C4.95765 2.9876 5.21472 3.2491 5.48508 3.52833C5.62248 3.67016 5.76431 3.81199 5.90614 3.95825L7.11613 5.16824C7.58594 5.63805 7.58594 6.07241 7.11613 6.54222C6.98759 6.67075 6.86349 6.79929 6.73496 6.92339C6.36265 7.30456 6.00808 7.65913 5.62248 8.00484C5.61361 8.01371 5.60475 8.01814 5.60032 8.027C5.21915 8.40817 5.29006 8.78048 5.36984 9.03311C5.37428 9.04641 5.37871 9.0597 5.38314 9.073C5.69783 9.83534 6.14104 10.5534 6.81474 11.4088L6.81917 11.4132C8.04246 12.9201 9.33222 14.0947 10.755 14.9944C10.9367 15.1096 11.1228 15.2027 11.3001 15.2914C11.4597 15.3711 11.6104 15.4465 11.7389 15.5263C11.7566 15.5351 11.7744 15.5484 11.7921 15.5573C11.9428 15.6326 12.0846 15.6681 12.2309 15.6681C12.5988 15.6681 12.8292 15.4376 12.9046 15.3623L14.4204 13.8465C14.5711 13.6958 14.8104 13.5141 15.0896 13.5141C15.3644 13.5141 15.5905 13.6869 15.7279 13.8376C15.7323 13.842 15.7323 13.842 15.7367 13.8465L18.1789 16.2886C18.6354 16.7407 18.6354 17.2061 18.1833 17.6759Z" fill="#D5B58E"/>
<path d="M11.3488 4.99532C12.5101 5.19034 13.5649 5.73993 14.407 6.58205C15.2492 7.42417 15.7943 8.47903 15.9938 9.64026C16.0425 9.93279 16.2951 10.1367 16.5832 10.1367C16.6187 10.1367 16.6497 10.1322 16.6852 10.1278C17.0132 10.0746 17.2303 9.76436 17.1772 9.43638C16.9378 8.03138 16.273 6.75047 15.258 5.7355C14.243 4.72053 12.9621 4.0557 11.5571 3.81636C11.2292 3.76317 10.9233 3.98035 10.8657 4.3039C10.8081 4.62745 11.0208 4.94214 11.3488 4.99532Z" fill="#D5B58E"/>
<path d="M20.9756 9.26354C20.5811 6.94994 19.4908 4.84465 17.8154 3.16928C16.1401 1.49391 14.0348 0.403587 11.7212 0.00912211C11.3976 -0.0484964 11.0918 0.173113 11.0342 0.496663C10.981 0.824646 11.1982 1.13047 11.5262 1.18809C13.5916 1.53823 15.4752 2.51774 16.9733 4.01139C18.4714 5.50947 19.4465 7.39316 19.7966 9.45856C19.8454 9.75108 20.098 9.95496 20.3861 9.95496C20.4216 9.95496 20.4526 9.95053 20.4881 9.9461C20.8116 9.89735 21.0332 9.58709 20.9756 9.26354Z" fill="#D5B58E"/>
</g>
<defs>
<clipPath id="clip0">
<rect width="21" height="21" fill="white"/>
</clipPath>
</defs>
</svg>
