<svg width="11" height="11" viewBox="0 0 11 11" fill="none" xmlns="http://www.w3.org/2000/svg">
<g clip-path="url(#clip0)">
<path d="M5.5001 9.15139L9.66036 4.99091C9.95946 4.69193 10.4443 4.69193 10.7433 4.99091C11.0424 5.2899 11.0424 5.77475 10.7433 6.07385L6.04138 10.7759C5.89182 10.9254 5.69601 11 5.5001 11C5.30411 11 5.10816 10.9252 4.95866 10.7759L0.256776 6.07385C-0.042475 5.77475 -0.042475 5.28987 0.256776 4.99091C0.555759 4.69193 1.04068 4.69193 1.33964 4.99091L5.5001 9.15139ZM1.33964 0.224237C1.04066 -0.0747463 0.555735 -0.0747464 0.256776 0.224237C-0.0424748 0.523221 -0.0424748 1.00793 0.256776 1.3072L4.95864 6.00921C5.10813 6.1587 5.30409 6.23324 5.50007 6.23324C5.69598 6.23324 5.89194 6.15856 6.04136 6.00921L10.7433 1.3072C11.0424 1.00795 11.0424 0.523221 10.7433 0.224238C10.4443 -0.0747459 9.95949 -0.0747459 9.66036 0.224238L5.5001 4.38481L1.33964 0.224237Z" fill="white"/>
</g>
<defs>
<clipPath id="clip0">
<rect width="11" height="11" fill="white" transform="translate(11) rotate(90)"/>
</clipPath>
</defs>
</svg>
