<svg xmlns="http://www.w3.org/2000/svg" xmlns:xlink="http://www.w3.org/1999/xlink" width="20" height="20" viewBox="0 0 20 20"><defs><path id="gwana" d="M274.257 6030.671l-1.015 1.693a1.722 1.722 0 0 1-1.017.788c-2.05.563-5.632.097-11.053-5.324-5.421-5.421-5.887-9.003-5.325-11.054.122-.428.405-.793.79-1.018l1.692-1.015a.51.51 0 0 1 .688.155l1.466 2.201 1.23 1.846a.513.513 0 0 1-.11.687l-1.516 1.179c-.461.352-.593.99-.309 1.497l.12.218c.427.782.956 1.754 2.89 3.687 1.933 1.933 2.904 2.462 3.685 2.888l.22.12a1.167 1.167 0 0 0 1.496-.308l1.18-1.516a.513.513 0 0 1 .686-.11l4.047 2.699a.51.51 0 0 1 .155.687zm.218-1.243l-4.048-2.7a1.182 1.182 0 0 0-1.582.257l-1.18 1.517a.504.504 0 0 1-.646.136l-.224-.124c-.743-.405-1.669-.91-3.533-2.775-1.864-1.864-2.37-2.79-2.775-3.533l-.123-.224a.505.505 0 0 1 .134-.648l1.515-1.18c.485-.379.597-1.067.257-1.581l-2.7-4.048a1.175 1.175 0 0 0-1.584-.357l-1.693 1.017c-.531.313-.922.819-1.088 1.413-.61 2.22-.151 6.054 5.495 11.701 4.492 4.492 7.836 5.7 10.134 5.7a5.905 5.905 0 0 0 1.566-.205 2.386 2.386 0 0 0 1.413-1.09l1.018-1.69a1.176 1.176 0 0 0-.356-1.586z"/><path id="gwanb" d="M266.333 6017.334a5.672 5.672 0 0 1 5.665 5.666.333.333 0 1 0 .667 0 6.34 6.34 0 0 0-6.332-6.332.333.333 0 1 0 0 .666z"/><path id="gwanc" d="M266.333 6019.334a3.67 3.67 0 0 1 3.666 3.666.333.333 0 0 0 .666 0 4.338 4.338 0 0 0-4.332-4.333.333.333 0 1 0 0 .667z"/><path id="gwand" d="M266.333 6021.334c.92 0 1.665.746 1.666 1.666a.333.333 0 1 0 .667 0 2.336 2.336 0 0 0-2.333-2.333.333.333 0 1 0 0 .667z"/></defs><g><g transform="translate(-255 -6014)"><g><g><g><use xlink:href="#gwana"/></g><g><use xlink:href="#gwanb"/></g><g><use xlink:href="#gwanc"/></g><g><use xlink:href="#gwand"/></g></g></g></g></g></svg>