<svg xmlns="http://www.w3.org/2000/svg" xmlns:xlink="http://www.w3.org/1999/xlink" width="20" height="20" viewBox="0 0 20 20"><defs><path id="jtqta" d="M260.129 6104.766c-.385.489-.359 1.338.075 2.334.5 1.15 1.46 2.34 2.701 3.354 1.241 1.014 2.601 1.717 3.83 1.98 1.063.229 1.902.088 2.308-.385l.512-.755-1.868-.944-.905 1.101-.407-.177c-.88-.383-1.898-.856-2.821-1.61-.923-.754-1.588-1.656-2.139-2.442l-.254-.363.912-1.11-1.264-1.675-.68.692zm7.543 8.945c-.37 0-.765-.044-1.184-.134-1.407-.301-2.943-1.09-4.326-2.218-1.382-1.13-2.46-2.477-3.033-3.794-.629-1.444-.59-2.707.107-3.557.02-.025.02-.025 1.214-1.238l.477-.484 2.635 3.494-.93 1.133c.453.627.989 1.295 1.664 1.847.676.552 1.439.944 2.144 1.264l.937-1.141 3.893 1.968-.372.55c-.914 1.347-.914 1.347-.934 1.372-.509.618-1.302.938-2.292.938z"/><path id="jtqtb" d="M259.817 6115.108l.243.164a8.8 8.8 0 0 0 4.94 1.507 8.782 8.782 0 0 0 6.243-2.579 8.737 8.737 0 0 0 2.585-6.226 8.736 8.736 0 0 0-2.586-6.226 8.782 8.782 0 0 0-6.242-2.58 8.782 8.782 0 0 0-6.242 2.58 8.736 8.736 0 0 0-2.586 6.226c0 1.963.634 3.82 1.833 5.371l.212.274-1.056 2.404zm-4.804 2.892l1.855-4.222a9.857 9.857 0 0 1-1.868-5.804 9.896 9.896 0 0 1 2.929-7.053A9.948 9.948 0 0 1 265 6098a9.948 9.948 0 0 1 7.071 2.921 9.896 9.896 0 0 1 2.929 7.053 9.896 9.896 0 0 1-2.929 7.053 9.948 9.948 0 0 1-7.071 2.92 9.968 9.968 0 0 1-5.35-1.545z"/></defs><g><g transform="translate(-255 -6098)"><g><use xlink:href="#jtqta"/></g><g><use xlink:href="#jtqtb"/></g></g></g></svg>