<svg xmlns="http://www.w3.org/2000/svg" xmlns:xlink="http://www.w3.org/1999/xlink" width="21" height="25" viewBox="0 0 21 25"><defs><path id="n1g1a" d="M320.496 6210.692h-2.546v1.245c0 .65.213.975.65.975.314 0 .496-.17.569-.51.012-.07.028-.352.028-.863h1.3v.186c0 .41-.017.693-.028.82a1.814 1.814 0 0 1-.297.763c-.353.51-.875.761-1.54.761-.666 0-1.173-.24-1.541-.72-.27-.35-.409-.904-.409-1.651v-2.46c0-.752.123-1.301.394-1.656.367-.481.874-.72 1.524-.72.64 0 1.146.239 1.502.72.267.355.394.904.394 1.655v1.455zm-4.804 1.172c0 .65-.044 1.118-.13 1.415-.17.523-.51.79-1.016.79-.453 0-.89-.251-1.316-.777v.68h-1.273v-9.428h1.273v3.079c.411-.506.848-.762 1.316-.762.506 0 .847.266 1.017.792.085.283.129.748.129 1.413zm-6.11 2.108v-.766c-.507.58-.987.863-1.455.863-.41 0-.693-.166-.82-.522-.07-.212-.113-.549-.113-1.045v-5.555h1.273v5.172c0 .299 0 .454.012.496.03.197.127.297.297.297.256 0 .523-.196.805-.596v-5.37h1.274v7.026zm-2.573-8.101h-1.525v8.101h-1.416v-8.101h-1.497v-1.327h4.438zm14.692-1.237c-.258-1.12-1.174-1.947-2.277-2.07-2.612-.292-5.256-.293-7.888-.292-2.632 0-5.276 0-7.888.292-1.103.123-2.019.95-2.276 2.07-.368 1.595-.372 3.337-.372 4.98 0 1.642 0 3.384.367 4.98.258 1.12 1.174 1.946 2.277 2.069 2.611.292 5.255.293 7.888.292 2.632.001 5.276 0 7.888-.292 1.103-.123 2.02-.95 2.277-2.07.367-1.595.369-3.337.369-4.98 0-1.642.002-3.384-.365-4.979z"/><path id="n1g1b" d="M318.589 6208.007c-.426 0-.639.325-.639.975v.65h1.273v-.65c0-.65-.213-.975-.634-.975z"/><path id="n1g1c" d="M313.865 6208.007c-.21 0-.422.1-.635.31v4.282c.212.213.425.313.635.313.367 0 .553-.313.553-.948v-2.998c0-.634-.186-.959-.553-.959z"/><path id="n1g1d" d="M314.576 6201.625c.469 0 .957-.285 1.47-.872v.774h1.286v-7.1h-1.287v5.427c-.285.403-.555.602-.812.602-.173 0-.274-.102-.302-.301-.016-.042-.016-.199-.016-.5v-5.228h-1.282v5.615c0 .501.043.84.114 1.055.13.36.415.528.829.528z"/><path id="n1g1e" d="M305.62 6197.669v3.858h1.426v-3.858l1.716-5.669h-1.443l-.973 3.741-1.013-3.741h-1.501c.3.883.614 1.77.914 2.655.458 1.328.744 2.33.873 3.014z"/><path id="n1g1f" d="M310.06 6196.484c0-.657.2-.984.614-.984.415 0 .614.327.614.984v2.987c0 .657-.2.985-.614.985-.415 0-.614-.328-.614-.985zm.614 5.14c.645 0 1.146-.242 1.5-.726.27-.355.4-.915.4-1.67v-2.486c0-.759-.129-1.314-.4-1.672-.354-.486-.855-.729-1.5-.729-.641 0-1.142.243-1.498.729-.273.358-.402.913-.402 1.672v2.486c0 .755.129 1.315.402 1.67.356.484.857.727 1.498.727z"/></defs><g><g transform="translate(-301 -6192)"><g><g><use fill="#545454" xlink:href="#n1g1a"/></g><g><use fill="#545454" xlink:href="#n1g1b"/></g><g><use fill="#545454" xlink:href="#n1g1c"/></g><g><use fill="#545454" xlink:href="#n1g1d"/></g><g><use fill="#545454" xlink:href="#n1g1e"/></g><g><use fill="#545454" xlink:href="#n1g1f"/></g></g></g></g></svg>